<?xml version="1.0" encoding="UTF-8" standalone="no"?>
<!-- Created with Inkscape (http://www.inkscape.org/) -->

<svg
   xmlns:dc="http://purl.org/dc/elements/1.1/"
   xmlns:cc="http://creativecommons.org/ns#"
   xmlns:rdf="http://www.w3.org/1999/02/22-rdf-syntax-ns#"
   xmlns:svg="http://www.w3.org/2000/svg"
   xmlns="http://www.w3.org/2000/svg"
   xmlns:sodipodi="http://sodipodi.sourceforge.net/DTD/sodipodi-0.dtd"
   xmlns:inkscape="http://www.inkscape.org/namespaces/inkscape"
   width="210mm"
   height="297mm"
   viewBox="0 0 210 297"
   id="svg2"
   version="1.1"
   inkscape:version="0.91+devel r"
   sodipodi:docname="amsel.svg">
  <defs
     id="defs4">
    <inkscape:perspective
       id="perspective2999"
       inkscape:persp3d-origin="372.04724 : 350.78739 : 1"
       inkscape:vp_z="744.09448 : 526.18109 : 1"
       inkscape:vp_y="0 : 1000 : 0"
       inkscape:vp_x="0 : 526.18109 : 1"
       sodipodi:type="inkscape:persp3d" />
    <inkscape:perspective
       sodipodi:type="inkscape:persp3d"
       inkscape:vp_x="0 : 0.5 : 1"
       inkscape:vp_y="0 : 1000 : 0"
       inkscape:vp_z="1 : 0.5 : 1"
       inkscape:persp3d-origin="0.5 : 0.33333333 : 1"
       id="perspective3048" />
  </defs>
  <sodipodi:namedview
     id="base"
     pagecolor="#ffffff"
     bordercolor="#666666"
     borderopacity="1.0"
     inkscape:pageopacity="0.0"
     inkscape:pageshadow="2"
     inkscape:zoom="0.75200526"
     inkscape:cx="440.01335"
     inkscape:cy="671.11859"
     inkscape:document-units="mm"
     inkscape:current-layer="layer1"
     showgrid="false"
     showguides="false"
     inkscape:window-width="1600"
     inkscape:window-height="876"
     inkscape:window-x="0"
     inkscape:window-y="24"
     inkscape:window-maximized="1" />
  <metadata
     id="metadata7">
    <rdf:RDF>
      <cc:Work
         rdf:about="">
        <dc:format>image/svg+xml</dc:format>
        <dc:type
           rdf:resource="http://purl.org/dc/dcmitype/StillImage" />
        <dc:title></dc:title>
      </cc:Work>
    </rdf:RDF>
  </metadata>
  <g
     inkscape:label="Ebene 1"
     inkscape:groupmode="layer"
     id="layer1">
    <g
       transform="scale(0.9859403,1.0142602)"
       style="font-style:normal;font-weight:normal;font-size:44.37441254px;line-height:125%;font-family:Sans;letter-spacing:0px;word-spacing:0px;fill:#ff9c03;fill-opacity:1;stroke:none;stroke-width:1px;stroke-linecap:butt;stroke-linejoin:miter;stroke-opacity:1"
       id="text11275-7">
      <path
         d="m 86.228103,191.56477 12.025465,0 0,-1.50873 -0.576867,0 c -0.709991,0 -1.686228,-0.39937 -2.085597,-0.84311 -0.39937,-0.48812 -0.532493,-1.24248 -0.532493,-2.92871 l 0,-7.9874 c 3.106209,-2.21872 4.969929,-3.06183 6.700539,-3.06183 1.95247,0 2.88433,1.50873 2.88433,4.65931 l 0,6.83366 c 0,2.39622 -0.70999,3.32808 -2.52934,3.32808 l -0.1775,0 0,1.50873 11.18236,0 0,-1.50873 -0.1775,0 c -0.66562,0 -1.50873,-0.35499 -1.95248,-0.88748 -0.39936,-0.44375 -0.53249,-1.24249 -0.53249,-2.88434 l 0,-8.07614 c 3.28371,-2.17435 5.05868,-2.97309 6.56741,-2.97309 2.0856,0 2.92872,1.68623 2.92872,5.7243 l 0,2.83996 c 0,4.65931 -0.57687,5.99055 -2.70684,6.25679 l 0,1.50873 11.18235,0 0,-1.50873 -0.13312,0 c -0.97624,0 -1.9081,-0.35499 -2.17435,-0.88748 -0.26625,-0.44375 -0.355,-1.46436 -0.355,-3.59433 l 0,-5.76868 c 0,-5.67992 -1.50873,-8.16489 -4.96993,-8.16489 -1.77498,0 -3.72745,0.70999 -6.70054,2.39622 -1.64185,0.97624 -2.52934,1.55311 -3.8162,2.52934 -0.39937,-3.10621 -2.21872,-4.92556 -4.92556,-4.92556 -2.48496,0 -5.10305,1.24249 -10.294859,4.92556 l 0,-5.45805 -0.887489,0 -8.031768,2.70684 0,1.19811 1.10936,0.35499 c 1.331232,0.44375 1.996849,1.06499 1.996849,1.81935 l 0,9.5405 c 0,2.4406 -0.709991,3.32808 -2.70684,3.32808 l -0.31062,0 0,1.50873 z"
         style="font-style:normal;font-variant:normal;font-weight:bold;font-stretch:normal;font-family:'Bergamo Std';-inkscape-font-specification:'Bergamo Std Bold';letter-spacing:-0.26458335px;fill:#ff9c03;fill-opacity:1"
         id="path11426" />
      <path
         d="m 131.71978,192.00852 1.33123,0 c 0.44375,-0.44375 0.70999,-0.62124 0.97624,-0.62124 0.13312,0 0.31062,0.0444 0.48812,0.0887 1.41998,0.355 3.32808,0.62125 4.43744,0.62125 3.6387,0 6.30116,-2.52935 6.30116,-6.03492 0,-1.59748 -0.57686,-3.06184 -1.59747,-4.08245 -0.97624,-0.97624 -1.28686,-1.19811 -4.30432,-2.92871 -2.57372,-1.46436 -3.46121,-2.39622 -3.46121,-3.59433 0,-1.06498 0.93187,-1.86372 2.17435,-1.86372 2.04122,0 3.6387,1.46435 4.52619,4.12682 l 1.46436,0 -0.0888,-5.10306 c -1.99685,-0.70999 -3.46121,-0.97624 -5.23618,-0.97624 -4.52619,0 -7.49928,2.39622 -7.49928,6.03492 0,2.39622 1.15374,3.90495 4.61494,6.12367 2.97308,1.9081 2.97308,1.9081 3.54995,2.48497 0.44375,0.44374 0.70999,1.02061 0.70999,1.5531 0,1.19811 -1.10936,2.17435 -2.44059,2.17435 -2.26309,0 -3.90495,-1.37561 -4.96993,-4.03807 l -1.50873,0 0.53249,6.03492 z"
         style="font-style:normal;font-variant:normal;font-weight:bold;font-stretch:normal;font-family:'Bergamo Std';-inkscape-font-specification:'Bergamo Std Bold';letter-spacing:-0.26458335px;fill:#ff9c03;fill-opacity:1"
         id="path11428" />
      <path
         d="m 148.42147,182.29052 c 0,5.76867 3.54996,9.76237 8.69739,9.76237 3.68308,0 7.49927,-2.21872 10.20611,-5.99054 l -1.06498,-0.93187 c -2.2631,2.39622 -4.03807,3.41683 -5.7243,3.41683 -3.10621,0 -5.76867,-3.23933 -6.03492,-7.2774 l 13.26795,0 0,-1.06499 c -0.57687,-0.35499 -0.79874,-0.75436 -0.93186,-1.50873 -0.355,-1.77497 -0.62125,-2.57371 -1.15374,-3.4612 -1.33123,-2.2631 -3.94932,-3.59433 -7.05553,-3.59433 -5.94617,0 -10.20612,4.43744 -10.20612,10.64986 z m 5.99055,-2.52934 0,-0.62124 c 0,-3.06184 1.41998,-5.23618 3.41683,-5.23618 2.0856,0 3.32808,2.21872 3.37246,5.85742 l -6.78929,0 z"
         style="font-style:normal;font-variant:normal;font-weight:bold;font-stretch:normal;font-family:'Bergamo Std';-inkscape-font-specification:'Bergamo Std Bold';letter-spacing:-0.26458335px;fill:#ff9c03;fill-opacity:1"
         id="path11430" />
      <path
         d="m 169.10993,191.56477 11.8036,0 0,-1.50873 -0.22188,0 c -0.70999,0 -1.64185,-0.39937 -2.08559,-0.84311 -0.39937,-0.48812 -0.5325,-1.28686 -0.5325,-2.92871 l 0,-26.5359 -0.84311,0 -8.25364,2.35184 0,1.41998 2.04122,0.71 c 1.06499,0.35499 1.24249,0.75436 1.24249,2.88433 l 0,19.61349 c 0,2.4406 -0.70999,3.32808 -2.66247,3.32808 l -0.48812,0 0,1.50873 z"
         style="font-style:normal;font-variant:normal;font-weight:bold;font-stretch:normal;font-family:'Bergamo Std';-inkscape-font-specification:'Bergamo Std Bold';letter-spacing:-0.26458335px;fill:#ff9c03;fill-opacity:1"
         id="path11432" />
    </g>
    <g
       transform="matrix(-0.26458334,0,0,0.26458334,108.94727,-50.273409)"
       id="layer1-6"
       inkscape:label="Ebene 1">
      <path
         id="path3054"
         d="m 77.553101,841.33769 c -2.64227,-0.63385 -2.88365,-0.6153 -3.61251,0.27795 -0.66954,0.82055 -0.7421,0.83315 -0.50822,0.0882 0.31898,-1.016 -0.45873,-0.9645 -1.79588,0.119 -0.50907,0.4125 -1.31252,0.78165 -1.78544,0.8203 -0.47293,0.0385 -1.25617,0.2325 -1.74054,0.4307 -0.70001,0.2864 -0.81041,0.17725 -0.53819,-0.53215 0.2656,-0.69215 0.15464,-0.8204 -0.49433,-0.57135 -1.35233,0.51895 -0.95798,-0.55205 0.48085,-1.30595 1.27367,-0.66735 1.2128,-0.6999 -1.82338,-0.9752 -2.38995,-0.2167 -3.41349,-0.5636 -4.28048,-1.4506 -3.72071,-3.8066 -12.29168,-9.10265 -13.94388,-8.61605 -0.56096,0.16525 -3.09134,1.0654 -5.62308,2.00035 -2.70448,0.99875 -5.53054,1.69995 -6.85148,1.69995 -2.1855,0 -2.84681,0.18855 -7.04536,2.00865 -1.1,0.4769 -4.25,1.69015 -7,2.69615 -2.75,1.00605 -5.5625,2.0734 -6.25,2.37195 -3.63314,1.5777 -8.2152198,2.88405 -8.4999598,2.4233 -0.20778,-0.3362 -1.2758,-0.31075 -3.20288,0.0762 -2.40009,0.482 -2.96492,0.4613 -3.32545,-0.1221 -0.35036,-0.5669 -1.56037,-0.14215 -6.26048,2.1974 -3.20439,1.5951 -5.9132402,2.81305 -6.0196602,2.70665 -0.10642,-0.10645 1.32569,-1.19645 3.1824702,-2.42225 8.23045,-5.4336 12.12596,-8.19815 12.12596,-8.60555 0,-0.6231 -2.22261,0.014 -5.73187,1.6436 -1.65997,0.7707 -3.91813,1.79915 -5.01813,2.2854 -3.2929502,1.4556 -21.6884002,10.6652 -26.1527202,13.0932 -2.28401,1.2422 -4.24451,2.1668 -4.35667,2.0546 -0.11217,-0.11215 2.15031,-1.8656 5.02772,-3.8965 2.87742,-2.0309 5.23167,-3.7672 5.23167,-3.85835 0,-0.28635 -3.66149,1.34845 -5.75,2.56735 -1.1,0.64195 -3.575,2.0107 -5.5,3.04165 -1.925,1.03095 -4.09723,2.2939 -4.82718,2.80655 -2.7307,1.9177 -1.99299,0.84575 0.85831,-1.24725 9.30784,-6.83235 13.54227,-9.88385 17.44379,-12.5707 3.99524,-2.7514 13.06726,-9.3755 13.68183,-9.9901 0.14295,-0.14295 -0.0589,-0.2599 -0.44848,-0.2599 -0.69173,0 -12.66231,6.51835 -27.70827,15.08795 -8.77694,4.99905 -9.75,5.52085 -9.75,5.2284 0,-0.29555 8.84252,-6.55805 19.5,-13.81045 12.41269,-8.4468 16.64977,-11.5228 16.3227,-11.84985 -0.27663,-0.27665 -6.04016,2.4042 -9.0727,4.2201 -3.44101,2.06045 -8.63345,5.08485 -10.5,6.1158 -1.1,0.60755 -3.18125,1.77445 -4.625,2.59305 -1.44375,0.8186 -2.625,1.3655 -2.625,1.21525 0,-0.1502 3.99375,-3.075 8.875,-6.49955 9.76789,-6.8528 13.26153,-9.3423 15.08001,-10.7457 l 1.20501,-0.93 -1.4211,0 c -0.7816,0 -2.42612,0.5344 -3.65448,1.1875 -2.4417,1.29825 -4.20494,1.5594 -3.79781,0.5625 0.14038,-0.34375 1.31457,-1.39905 2.60931,-2.3451 1.29473,-0.94605 3.59156,-2.62165 5.10406,-3.72355 3.92444,-2.8591 3.97324,-2.9252 1.875,-2.5396 -2.72843,0.50135 -2.46067,-0.6906 0.75,-3.33865 3.90186,-3.2182 11.8750002,-11.0867 11.8750002,-11.71915 0,-0.8641 -3.45055,-1.6841 -9.3389402,-2.2193 -7.24,-0.65805 -15.66361,-2.16065 -22.66106,-4.0422 -6.10075,-1.64045 -10.78667,-2.5057 -18.5,-3.41595 -5.27785,-0.62285 -14.205808,-2.50985 -19.258693,-4.07055 -3.559815,-1.0995 -11.73802,-2.46095 -14.783003,-2.46095 -1.033355,0 -5.21546,0.57745 -9.293565,1.28325 -9.71202,1.6808 -11.13744,1.91465 -19.41473,3.1851 -3.85,0.5909 -7.5625,1.3297 -8.25,1.64175 -0.6875,0.312 -2.6,0.7223 -4.25,0.9117 -1.65,0.1894 -5.1375,0.832 -7.75,1.428 -2.6125,0.59605 -7.7875,1.74955 -11.5,2.5634 -3.7125,0.81385 -8.43751,1.92625 -10.50001,2.47205 -7.58297,2.00675 -16.57365,4.01475 -17.97544,4.01475 -0.79267,0 -1.53351,-0.27685 -1.6463,-0.61525 -0.15855,-0.47565 -1.21366,-0.4208 -4.65002,0.24165 -4.54164,0.87555 -5.98255,0.63495 -4.79163,-0.8 0.32682,-0.3938 1.93728,-1.21825 3.57881,-1.83215 1.64152,-0.6139 2.98459,-1.2039 2.98459,-1.3111 0,-0.10725 -0.84375,-0.0859 -1.875,0.0475 -8.63663,1.11645 -14.41502,1.7733 -17.39521,1.97725 -1.93612,0.13255 -4.56668,0.4755 -5.8457,0.7621 -1.27902,0.28665 -2.61993,0.42945 -2.97979,0.3174 -0.35987,-0.1121 -1.28225,-0.3417 -2.04975,-0.51025 -1.81352,-0.3982 -1.35615,-1.07535 1.01493,-1.5026 3.07156,-0.55345 10.63052,-2.94775 10.63052,-3.3672 0,-0.2135 -0.95625,-0.28745 -2.125,-0.16435 -5.85426,0.61655 -9.56579,0.7503 -9.1141,0.32845 0.76166,-0.7114 18.62948,-6.11235 29.9891,-9.0649 3.3,-0.85775 7.57499,-1.99415 9.49999,-2.5253 4.82497,-1.33145 13.13289,-3.2593 21.75001,-5.0472 8.33214,-1.7287 12.85214,-2.69675 23,-4.9258 7.4654,-1.6398 28.20366,-5.9421 40.999995,-8.50565 16.619943,-3.32965 24.938336,-5.66135 37.499996,-10.51155 7.63407,-2.9476 9.3044,-3.77835 8.41041,-4.1829 -0.36322,-0.1644 -0.18291,-0.1824 0.4007,-0.04 1.15585,0.2819 7.73825,-2.3349 6.72384,-2.67305 -0.36281,-0.12095 -0.0317,-0.57104 0.79724,-1.08359 0.97748,-0.60445 1.69005,-0.73664 2.29438,-0.42564 1.76782,0.90976 6.5768,-1.65359 35.1234302,-18.72201 1.375,-0.82213 2.66531,-1.74655 2.86735,-2.05427 0.20204,-0.30771 0.37079,-0.35586 0.375,-0.10698 0.004,0.24887 0.4014,0.11819 0.8826498,-0.2904 0.48125,-0.4086 2,-1.38024 3.375,-2.15922 1.375,-0.77897 2.66055,-1.66079 2.85677,-1.95959 0.19621,-0.29881 0.53371,-0.5438 0.75,-0.54443 1.64656,-0.005 34.8626,-21.12239 45.08446,-28.66313 3.94212,-2.90813 49.973499,-33.49959 63.308769,-42.07364 12.71727,-8.1767 35.02757,-21.13685 42.83451,-24.88275 3.94102,-1.89097 8.76313,-4.37144 10.71579,-5.51216 4.71278,-2.75314 14.14699,-10.09004 21.62296,-16.81598 8.72376,-7.84855 22.07674,-22.74126 22.07674,-24.62241 0,-0.88817 10.6982,-13.87559 16.39737,-19.90611 8.79266,-9.30387 20.55783,-16.96356 32.01213,-20.84142 12.91631,-4.37283 19.57726,-5.31317 29.45891,-4.15875 7.45645,0.8711 11.47045,1.80538 16.28315,3.78998 4.6606,1.92188 5.16485,1.81136 1.68025,-0.36827 -1.5878,-0.99317 -2.7848,-1.90791 -2.65995,-2.03274 0.12485,-0.12483 1.5933,0.46277 3.2633,1.30578 3.29885,1.66525 3.7989,1.81598 3.28935,0.99144 -0.78055,-1.26295 3.6201,1.60761 12.2755,8.00736 5.0875,3.76166 10.2625,7.56749 11.5,8.4574 l 2.25,1.61802 c 44.56906,11.39259 20.46202,4.82219 -2.0427,30.45852 -0.84845,0.9625 -2.87345,3.00935 -4.5,4.54856 -2.29755,2.17423 -3.1726,3.43495 -3.9224,5.65118 -0.5308,1.56894 -1.1758,2.98284 -1.43335,3.14199 -0.76745,0.47432 -3.67075,7.25549 -4.00235,9.34832 -0.387,2.44227 -2.92355,7.73991 -4.33795,9.05995 -3.10585,2.89862 -3.95055,4.07225 -5.16055,7.17014 -2.2337,5.71891 -2.4735,9.58807 -2.8561,46.07986 -0.1975,18.8375 -0.6031,36.6125 -0.90135,39.5 -0.29825,2.8875 -0.66165,7.05224 -0.8075,9.25497 -0.23795,3.59246 -0.673,5.6468 -3.06955,14.49503 -1.167,4.30861 -2.60725,9.87292 -3.42955,13.25 -0.4353,1.78749 -1.442,4.59999 -2.2372,6.24999 -0.7952,1.65 -2.62135,5.475 -4.05815,8.5 -1.4368,3.025 -2.7766,5.6125 -2.97735,5.75 -0.36425,0.24945 -1.4278,1.9834 -4.26395,6.95145 -0.825,1.44515 -2.8324,3.9035 -4.46095,5.46305 -6.02705,5.77175 -7.8168,7.40375 -11.33475,10.3355 -1.97985,1.65 -3.9608,3.44005 -4.40205,3.9779 -1.68875,2.0585 -6.38276,6.4502 -8.17726,7.65065 -1.03125,0.6899 -1.875,1.408 -1.875,1.59585 0,0.1878 -0.84375,0.82615 -1.875,1.41855 -1.03125,0.5924 -2.8693,2.00995 -4.08455,3.1501 -4.14835,3.89195 -14.07092,10.9517 -15.40319,10.9591 -0.21299,0 -1.57307,0.9012 -3.0224,2 -1.44933,1.0988 -2.83651,1.99785 -3.08262,1.99785 -0.24611,0 -1.08456,0.675 -1.86323,1.5 -0.77867,0.825 -1.59474,1.5 -1.81349,1.5 -0.21875,0 -0.66948,0.22315 -1.00162,0.4959 -4.04863,3.3245 -8.66691,6.62235 -10.1039,7.21495 -1.57829,0.65095 -3.85343,9.04585 -4.75,10.3558 -0.15013,0.21934 0.28125,-0.58375 0.625,-0.70655 0.34375,-0.12275 0.46596,-0.3943 0.27157,-0.6034 -0.19439,-0.20915 -0.75689,-0.2031 -1.25,0.0135 -0.49311,0.21645 -1.00907,0.4205 -1.14657,0.45335 -0.1375,0.033 -1.20236,0.65973 -2.35439,1.41145 0,0 -3.13331,1.58225 -4.39087,1.8641 -1.25756,0.2818 -2.67309,0.70175 -3.14561,0.93315 -4.60605,2.2558 -9.89227,4.44115 -11.67926,4.8282 -0.92393,0.20015 -2.57987,0.7572 -3.67987,1.23795 -1.49603,0.6538 -7.46044,-7.86158 -13.69634,-6.47057 -6.94419,1.549 0,0 -16.04704,3.02217 -14.6911,1.56105 -27.09216,1.58982 -37.87502,0.75183 -20.88233,-1.62286 -35.695607,-6.49651 -49.319679,-9.78703 z m -113.81192,-91.71115 c 0,-0.1081 0.34919,-0.3305 0.77597,-0.4943 0.44496,-0.1707 0.64566,-0.0869 0.47049,0.19655 -0.29363,0.4751 -1.24646,0.7027 -1.24646,0.29775 z"
         style="fill:#000000"
         inkscape:connector-curvature="0"
         sodipodi:nodetypes="csssccscssscssccscccccsscsscsscscsscsssscsssssccsccsscssssssssscscsssssssscccccssscscssssccccssccssccssssssssssssscssccssccsssscscsscsscscssscssssccsccccsccccscscsccs" />
    </g>
    <g
       transform="scale(0.9859403,1.0142602)"
       style="font-style:normal;font-weight:normal;font-size:91.97356415px;line-height:125%;font-family:Sans;letter-spacing:0px;word-spacing:0px;fill:#ff9c03;fill-opacity:1;stroke:none;stroke-width:1px;stroke-linecap:butt;stroke-linejoin:miter;stroke-opacity:1"
       id="text11275-7-0">
      <path
         d="m 30.428619,201.86571 22.717471,0 0,-1.83947 c -2.851181,-0.092 -4.506705,-0.18395 -4.966573,-0.27592 -3.219075,-0.3679 -4.598678,-1.37961 -4.598678,-3.31105 0,-1.01171 0.09197,-1.01171 2.023418,-6.34618 l 5.610388,-15.45156 20.418131,0 6.346176,16.92314 c 1.471577,3.95486 1.471577,4.04684 1.471577,5.05854 0,2.75921 -1.747498,3.40303 -9.197357,3.40303 l -1.103682,0 0,1.83947 27.132201,0 0,-1.83947 c -6.254202,0 -7.173938,-1.37961 -10.760907,-11.03683 l -18.854581,-50.03362 -8.553541,0 0.919736,2.20737 -18.026819,49.11388 c -3.035128,8.36959 -4.322757,9.56525 -10.57696,9.7492 l 0,1.83947 z m 22.533523,-31.54694 8.369595,-23.08536 8.737488,23.08536 -17.107083,0 z"
         style="font-style:normal;font-variant:normal;font-weight:normal;font-stretch:normal;font-family:'Bergamo Std';-inkscape-font-specification:'Bergamo Std';fill:#ff9c03;fill-opacity:1"
         id="path11423" />
    </g>
    <circle
       style="color:#000000;clip-rule:nonzero;display:inline;overflow:visible;visibility:visible;opacity:1;color-interpolation:sRGB;color-interpolation-filters:linearRGB;fill:#ffffff;fill-opacity:1;fill-rule:nonzero;stroke:none;stroke-width:0.35433072;stroke-linecap:butt;stroke-linejoin:round;stroke-miterlimit:4;stroke-dasharray:none;stroke-dashoffset:0;stroke-opacity:1;marker:none;color-rendering:auto;image-rendering:auto;shape-rendering:auto;text-rendering:auto;enable-background:accumulate"
       id="path11345"
       cx="26.843222"
       cy="100.24592"
       r="2.2167633" />
    <g
       transform="matrix(-0.26458334,0,0,0.26458334,108.94728,-50.273399)"
       id="layer1-6-3"
       inkscape:label="Ebene 1"
       style="fill:#ff9c03;fill-opacity:1">
      <path
         id="path3054-2"
         d="m 348.49119,555.36438 11.75,-0.33767 c 14.34485,-0.41224 23.83115,0.28324 31.33985,2.29765 4.86385,1.30485 5.7364,1.73455 12.2171,6.01643 0.223,0.14734 0.27765,0.75655 0.1215,1.3538 -0.4001,1.52989 -1.606,1.92552 -28.6016,9.38355 -12.19327,3.36861 -18.2724,4.99333 -21.76606,6.30969 -20.10573,-11.52371 -30.79941,-8.62642 -5.06079,-25.02345 z"
         style="fill:#ff9c03;fill-opacity:1"
         inkscape:connector-curvature="0"
         sodipodi:nodetypes="cssscscc" />
    </g>
  </g>
</svg>
